<svg xmlns="http://www.w3.org/2000/svg" xmlns:xlink="http://www.w3.org/1999/xlink" width="662.935" height="769.242" viewBox="0 0 662.935 769.242">
  <defs>
    <pattern id="pattern" preserveAspectRatio="xMidYMid slice" width="100%" height="100%" viewBox="0 0 488 408">

    </pattern>
  </defs>
  <g id="Grupo_46" data-name="Grupo 46" transform="translate(-629 -1541.566)">
    <path id="pessoa_1_cinza" data-name="pessoa 1 cinza" d="M1380.989,256.686,1049.4,445.113V832.867l331.589,192.627,331.346-192.627V445.113Z" transform="translate(-420.4 1285.314)" fill="#222a36"/>
    <g id="Grupo_2" data-name="Grupo 2" transform="translate(348.5 188.5)" opacity="0.25">
      <line id="Linha_3" data-name="Linha 3" y1="189.523" x2="328.507" transform="translate(281.5 1353.5)" fill="none" stroke="#03629e" stroke-width="1"/>
      <line id="Linha_4" data-name="Linha 4" x1="331.034" y1="189.523" transform="translate(610.007 1353.5)" fill="none" stroke="#03629e" stroke-width="1"/>
      <line id="Linha_5" data-name="Linha 5" x1="164.253" y2="93.498" transform="translate(776.787 1543.023)" fill="none" stroke="#03629e" stroke-width="1"/>
      <line id="Linha_6" data-name="Linha 6" x2="164.253" y2="93.498" transform="translate(281.5 1543.023)" fill="none" stroke="#03629e" stroke-width="1"/>
      <line id="Linha_7" data-name="Linha 7" x1="164.253" y2="96.025" transform="translate(445.753 1540.496)" fill="none" stroke="#03629e" stroke-width="1"/>
      <line id="Linha_8" data-name="Linha 8" x1="166.78" y1="96.025" transform="translate(610.007 1540.496)" fill="none" stroke="#03629e" stroke-width="1"/>
      <line id="Linha_9" data-name="Linha 9" x1="116.241" y2="68.228" transform="translate(493.766 1603.671)" fill="none" stroke="#03629e" stroke-width="1"/>
      <line id="Linha_10" data-name="Linha 10" x1="121.295" y1="68.228" transform="translate(610.007 1603.671)" fill="none" stroke="#03629e" stroke-width="1"/>
      <line id="Linha_11" data-name="Linha 11" x2="116.241" y2="68.228" transform="translate(493.766 1671.899)" fill="none" stroke="#03629e" stroke-width="1"/>
      <line id="Linha_12" data-name="Linha 12" x1="121.295" y2="68.228" transform="translate(610.007 1671.899)" fill="none" stroke="#03629e" stroke-width="1"/>
      <line id="Linha_13" data-name="Linha 13" y2="389.154" transform="translate(281.5 1543.023)" fill="none" stroke="#03629e" stroke-width="1"/>
      <line id="Linha_14" data-name="Linha 14" y2="391.681" transform="translate(445.753 1636.521)" fill="none" stroke="#03629e" stroke-width="1"/>
      <line id="Linha_15" data-name="Linha 15" y2="389.154" transform="translate(941.04 1543.023)" fill="none" stroke="#03629e" stroke-width="1"/>
      <line id="Linha_16" data-name="Linha 16" y2="391.681" transform="translate(776.787 1636.521)" fill="none" stroke="#03629e" stroke-width="1"/>
      <line id="Linha_17" data-name="Linha 17" y2="161.726" transform="translate(610.007 1740.127)" fill="none" stroke="#03629e" stroke-width="1"/>
      <line id="Linha_18" data-name="Linha 18" y2="161.726" transform="translate(493.766 1671.899)" fill="none" stroke="#03629e" stroke-width="1"/>
      <line id="Linha_19" data-name="Linha 19" y2="161.726" transform="translate(731.301 1671.899)" fill="none" stroke="#03629e" stroke-width="1"/>
      <line id="Linha_20" data-name="Linha 20" y1="68.228" x2="121.295" transform="translate(610.007 1833.625)" fill="none" stroke="#03629e" stroke-width="1"/>
      <line id="Linha_21" data-name="Linha 21" x2="116.241" y2="68.228" transform="translate(493.766 1833.625)" fill="none" stroke="#03629e" stroke-width="1"/>
      <line id="Linha_22" data-name="Linha 22" x1="50.539" y2="27.797" transform="translate(493.766 1863.949)" fill="none" stroke="#03629e" stroke-width="1"/>
      <line id="Linha_23" data-name="Linha 23" x2="50.539" y2="27.797" transform="translate(680.762 1863.949)" fill="none" stroke="#03629e" stroke-width="1"/>
      <line id="Linha_24" data-name="Linha 24" x2="116.241" y2="68.228" transform="translate(493.766 1891.745)" fill="none" stroke="#03629e" stroke-width="1"/>
      <line id="Linha_25" data-name="Linha 25" x1="121.295" y2="68.228" transform="translate(610.007 1891.745)" fill="none" stroke="#03629e" stroke-width="1"/>
      <line id="Linha_26" data-name="Linha 26" y2="161.726" transform="translate(493.766 1891.745)" fill="none" stroke="#03629e" stroke-width="1"/>
      <line id="Linha_27" data-name="Linha 27" y2="161.726" transform="translate(610.007 1959.974)" fill="none" stroke="#03629e" stroke-width="1"/>
      <line id="Linha_28" data-name="Linha 28" y2="161.726" transform="translate(731.301 1891.745)" fill="none" stroke="#03629e" stroke-width="1"/>
      <line id="Linha_29" data-name="Linha 29" y1="68.228" x2="121.295" transform="translate(610.007 2053.472)" fill="none" stroke="#03629e" stroke-width="1"/>
      <line id="Linha_30" data-name="Linha 30" x2="116.241" y2="68.228" transform="translate(493.766 2053.472)" fill="none" stroke="#03629e" stroke-width="1"/>
      <line id="Linha_31" data-name="Linha 31" x2="164.253" y2="96.025" transform="translate(281.5 1932.177)" fill="none" stroke="#03629e" stroke-width="1"/>
      <line id="Linha_32" data-name="Linha 32" x1="164.253" y2="96.025" transform="translate(776.787 1932.177)" fill="none" stroke="#03629e" stroke-width="1"/>
    </g>
    <path id="pessoa_2_cinza" data-name="pessoa 2 cinza" d="M1136.523,256.686,1049.4,306.194v101.88l87.123,50.612,87.059-50.612V306.194Z" transform="translate(-176.4 1356.314)" opacity="0.5" fill="url(#pattern)"/>
  </g>
</svg>
