<svg id="Grupo_35" data-name="Grupo 35" xmlns="http://www.w3.org/2000/svg" xmlns:xlink="http://www.w3.org/1999/xlink" width="118.347" height="25.136" viewBox="0 0 118.347 25.136">
  <defs>
    <clipPath id="clip-path">
      <rect id="Retângulo_40" data-name="Retângulo 40" width="118.347" height="25.136" fill="none"/>
    </clipPath>
  </defs>
  <g id="Grupo_34" data-name="Grupo 34" clip-path="url(#clip-path)">
    <path id="Caminho_3" data-name="Caminho 3" d="M12.656,0a12.569,12.569,0,1,1-.038,25.136A12.568,12.568,0,1,1,12.656,0" transform="translate(0 0)" fill="#009ddd"/>
    <path id="Caminho_4" data-name="Caminho 4" d="M332.456,22.858h-3.025c-1.568,0-2.3-.464-2.32-1.464s.733-1.506,2.273-1.507q2.933,0,5.866,0c.214,0,.428.008.642,0a1.471,1.471,0,1,0,0-2.928c-1.312-.042-2.627-.009-3.941-.017a5.668,5.668,0,0,1-1.633-.165,4.41,4.41,0,0,1,1.131-8.652c2.565-.068,5.133-.01,7.7-.027.427,0,.565.121.591.564.108,1.861-.352,2.384-2.189,2.385-1.772,0-3.544,0-5.317,0a4.461,4.461,0,0,0-.91.061,1.4,1.4,0,0,0-1.2,1.582,1.35,1.35,0,0,0,1.416,1.283c1.466.026,2.934-.016,4.4.023a4.358,4.358,0,0,1,4.071,2.492,4.185,4.185,0,0,1-.321,4.429,3.937,3.937,0,0,1-3.112,1.858c-1.37.075-2.747.017-4.121.017,0,.023,0,.045,0,.068" transform="translate(-267.067 -6.603)" fill="#fff"/>
    <path id="Caminho_5" data-name="Caminho 5" d="M257.405,8.124c1.254,0,2.508.017,3.761-.009.481-.01.691.078.706.637.054,1.9-.323,2.313-2.254,2.313-1.774,0-3.547,0-5.321,0a4,4,0,0,0-.82.057,1.39,1.39,0,0,0-1.2,1.58,1.334,1.334,0,0,0,1.406,1.288c1.467.029,2.936-.018,4.4.025a4.423,4.423,0,0,1,2.192,8.325,4.645,4.645,0,0,1-2.206.527c-2.354.016-4.709.008-7.063.009a2.325,2.325,0,0,1-.275-.016,1.509,1.509,0,0,1-1.475-1.466,1.468,1.468,0,0,1,1.469-1.463c.761-.054,1.528-.022,2.292-.024,1.682,0,3.364.018,5.045-.012a1.472,1.472,0,0,0,1.58-1.435,1.494,1.494,0,0,0-1.552-1.481c-1.558-.05-3.12.02-4.677-.047a4.329,4.329,0,0,1-4.126-3.943A4.4,4.4,0,0,1,252.3,8.375a5.049,5.049,0,0,1,1.622-.253c1.162.006,2.324,0,3.486,0" transform="translate(-203.51 -6.625)" fill="#fff"/>
    <path id="Caminho_6" data-name="Caminho 6" d="M497.034,15.54c0-1.834-.008-3.668,0-5.5.008-1.356.539-1.883,1.9-1.887q4.081-.012,8.162,0c1.125,0,1.826.594,1.823,1.492s-.669,1.442-1.836,1.445c-2.079.006-4.158.022-6.236-.011-.611-.01-.849.123-.848.795,0,2.16-.028,2.16,2.124,2.16,1.07,0,2.14-.018,3.21.006s1.743.636,1.74,1.494c0,.873-.668,1.442-1.751,1.452-1.528.014-3.057.026-4.585-.007-.561-.012-.75.161-.732.727.037,1.16.028,2.323,0,3.484-.022,1.093-.586,1.7-1.5,1.685-.9-.015-1.461-.647-1.471-1.738-.017-1.864,0-3.729,0-5.594" transform="translate(-405.806 -6.65)" fill="#fff"/>
    <path id="Caminho_7" data-name="Caminho 7" d="M578.772,8.148c1.618,0,3.237-.009,4.855,0,1.125.008,1.81.6,1.794,1.511-.016.889-.657,1.415-1.755,1.426-.886.008-1.773.039-2.656-.011-.611-.034-.769.173-.764.771.03,2.992.013,5.985.014,8.977a2.944,2.944,0,0,1-.125,1.084,1.373,1.373,0,0,1-1.5.951,1.292,1.292,0,0,1-1.306-1.179,14.073,14.073,0,0,1-.055-1.736c0-2.657-.03-5.313.016-7.969.013-.742-.219-.949-.929-.9-.851.059-1.709.022-2.564.012-1.073-.013-1.736-.583-1.727-1.464.009-.862.7-1.461,1.754-1.471,1.649-.016,3.3,0,4.947,0" transform="translate(-467.075 -6.649)" fill="#fff"/>
    <path id="Caminho_8" data-name="Caminho 8" d="M581.086,111.667c.182-.707.319-1.2.434-1.7.053-.23.13-.405.4-.4s.3.207.376.42c.153.454.092.973.43,1.421.138-.555.263-1.07.4-1.583.054-.208.191-.312.406-.235s.117.237.079.377c-.194.7-.393,1.4-.576,2.108-.052.2-.124.326-.354.329-.265,0-.354-.13-.42-.372a3.639,3.639,0,0,0-.44-1.43c-.129.518-.228.956-.349,1.388-.055.2-.093.418-.391.417-.278,0-.368-.173-.422-.389-.17-.677-.332-1.357-.5-2.034-.045-.18-.119-.363.159-.413.237-.042.329.111.373.3.124.532.239,1.065.4,1.8" transform="translate(-473.635 -89.451)" fill="#fff"/>
    <path id="Caminho_9" data-name="Caminho 9" d="M403.343,111.444c-.02.278.1.683-.4.736-.738.077-1.5.16-1.945-.629a1.383,1.383,0,0,1,.161-1.7,1.7,1.7,0,0,1,1.76-.471c.122.027.253.069.25.212,0,.2-.166.215-.325.215a2.957,2.957,0,0,0-.728.015,1.01,1.01,0,0,0,.185,1.977c.176.017.389.046.464-.18.056-.17.093-.38-.077-.5-.145-.1-.517-.014-.366-.351.121-.27.434-.123.662-.132.267-.011.378.146.362.407-.008.121,0,.244,0,.4" transform="translate(-327.221 -89.252)" fill="#fff"/>
    <path id="Caminho_10" data-name="Caminho 10" d="M387.056,110.724c-.009,1.323-.3,1.739-1.2,1.72a.944.944,0,0,1-1.046-.918c-.047-.514-.026-1.036-.025-1.554,0-.174-.031-.395.238-.4.309-.011.314.216.315.44,0,.457,0,.915.012,1.372.014.384.193.653.615.632.379-.019.508-.3.521-.63.017-.426.011-.853.022-1.28.006-.234-.057-.546.319-.522.317.02.215.311.23.5.016.212,0,.427,0,.64" transform="translate(-314.154 -89.458)" fill="#fff"/>
    <path id="Caminho_11" data-name="Caminho 11" d="M421.052,110.7c-.008,1.363-.331,1.8-1.27,1.743a.925.925,0,0,1-.977-.89c-.052-.544-.028-1.1-.028-1.645,0-.146,0-.322.211-.336a.282.282,0,0,1,.338.321c0,.4,0,.793,0,1.189.007.434-.013.939.6.923s.543-.544.563-.96c.015-.3,0-.61.006-.915.007-.23-.07-.558.293-.549s.231.354.255.57a4.867,4.867,0,0,1,0,.548" transform="translate(-341.911 -89.463)" fill="#fff"/>
    <path id="Caminho_12" data-name="Caminho 12" d="M553.186,110.613a5.474,5.474,0,0,1,0-.64c.032-.277-.16-.69.267-.769a2.336,2.336,0,0,1,1.35.05c.2.085.179.3-.066.379a1.8,1.8,0,0,1-.363.024c-.249.024-.577-.1-.587.351s.308.353.566.376c.167.015.4-.062.437.2.032.243-.167.318-.355.293-.641-.089-.7.289-.659.772.014.185-.014.38-.262.4-.313.024-.328-.2-.33-.425,0-.336,0-.671,0-1.007" transform="translate(-451.646 -89.1)" fill="#fff"/>
    <path id="Caminho_13" data-name="Caminho 13" d="M437.139,110.695c-.19.581-1.189-.172-1.1.735.079.828.969.024,1.229.672a1.771,1.771,0,0,1-1.526.063c-.612-.492-.177-1.338-.25-2.029-.027-.252-.2-.656.255-.757a2.176,2.176,0,0,1,.73-.014c.237.03.652-.171.652.252,0,.351-.38.164-.591.2-.228.038-.5-.059-.508.337-.012.444.282.383.554.39.2.005.415-.034.557.154" transform="translate(-355.493 -89.272)" fill="#fff"/>
    <path id="Caminho_14" data-name="Caminho 14" d="M634.142,110.714c-.05.041-.075.059-.1.08-.282.269-.952-.263-1,.452-.051.775.584.377.918.48.175.054.327.215.215.288-.4.262-.881.08-1.327.119-.36.032-.366-.218-.364-.476a8.194,8.194,0,0,0-.012-1.365c-.159-.972.334-1.149,1.13-1.022.211.034.564-.117.545.271-.015.318-.332.143-.512.191-.206.056-.521-.141-.587.234-.03.172-.06.388.165.46a2.437,2.437,0,0,0,.452.028c.164.019.374-.056.471.258" transform="translate(-516.369 -89.185)" fill="#fff"/>
    <path id="Caminho_15" data-name="Caminho 15" d="M504.156,110.415a1.669,1.669,0,0,1-.176.146c-.293.173-.888-.256-.916.431-.029.707.538.378.864.454.151.035.319.03.3.245-.016.155-.157.144-.272.169-1.157.254-1.456.022-1.456-1.136q0-.321,0-.641c0-1.052.436-1.375,1.441-1.077.121.036.242.065.258.207.023.213-.133.239-.292.244s-.306.011-.458.005c-.255-.009-.4.073-.388.364s.159.347.41.359c.221.011.492-.112.687.23" transform="translate(-410.27 -88.913)" fill="#fff"/>
    <path id="Caminho_16" data-name="Caminho 16" d="M185.546,111.7c.338.026.668.07.76-.258.114-.409-.28-.48-.541-.6-.443-.205-.851-.459-.662-1.018a1,1,0,0,1,1.194-.608c.186.019.483.015.425.332-.048.262-.284.147-.452.142-.245-.008-.544-.045-.61.251s.237.4.452.479c.534.2.957.5.749,1.138-.2.62-.763.617-1.291.568-.212-.019-.574.045-.49-.344.079-.365.354-.011.466-.082" transform="translate(-151.09 -89.158)" fill="#fff"/>
    <path id="Caminho_17" data-name="Caminho 17" d="M522.141,111.677c.3.022.629.023.68-.311.061-.395-.339-.455-.6-.572-.519-.231-.838-.594-.553-1.143a1.051,1.051,0,0,1,1.283-.434c.136.031.322.067.289.278s-.209.174-.358.176c-.258,0-.617-.147-.7.218-.091.411.329.431.584.565.509.267.877.606.521,1.231a1.474,1.474,0,0,1-1.583.345.242.242,0,0,1-.1-.313c.151-.314.368.027.536-.038" transform="translate(-425.833 -89.129)" fill="#fff"/>
    <path id="Caminho_18" data-name="Caminho 18" d="M199.16,111.7c.323.024.687.08.769-.31.073-.347-.286-.433-.526-.533-.5-.21-.891-.51-.665-1.1.209-.545.724-.6,1.234-.529.16.022.4.043.367.3-.026.209-.213.167-.36.17-.258,0-.619-.144-.695.224-.084.408.337.427.592.562.509.269.873.612.512,1.234a1.479,1.479,0,0,1-1.585.335.246.246,0,0,1-.09-.316c.122-.276.309-.019.447-.04" transform="translate(-162.209 -89.162)" fill="#fff"/>
    <path id="Caminho_19" data-name="Caminho 19" d="M449.225,111.7c.323.017.7.083.77-.307s-.337-.451-.6-.569c-.466-.208-.817-.512-.6-1.046.23-.571.759-.639,1.306-.539.141.026.314.079.3.277s-.187.187-.34.185c-.259,0-.613-.14-.709.2-.118.419.306.437.559.565.5.256.918.594.568,1.208s-.979.485-1.553.4a.209.209,0,0,1-.166-.273c.08-.409.325-.058.466-.1" transform="translate(-366.371 -89.158)" fill="#fff"/>
    <path id="Caminho_20" data-name="Caminho 20" d="M269.15,112.51c-.111-.3-.392-.395-.627-.561a1.387,1.387,0,0,1-.467-1.853,1.51,1.51,0,0,1,1.663-.843c.174.011.4.056.387.291-.018.273-.254.192-.423.179-.745-.059-1.2.274-1.194,1.024.007.692.44,1.027,1.142,1,.159,0,.393-.134.454.129s-.184.255-.35.284c-.188.033-.224.177-.264.323a.2.2,0,0,1-.321.023" transform="translate(-218.719 -89.194)" fill="#fff"/>
    <path id="Caminho_21" data-name="Caminho 21" d="M231.98,111.89c-1.464.375-2.293-.142-2.24-1.356a1.5,1.5,0,0,1,1.824-1.412c.165.037.408.044.378.292s-.264.188-.434.177c-.67-.046-1.141.168-1.191.915a.942.942,0,0,0,.92,1.115c.237.032.551-.183.743.268" transform="translate(-187.572 -89.064)" fill="#fff"/>
    <path id="Caminho_22" data-name="Caminho 22" d="M370.931,109.408c.242,0,.485-.006.727,0,.154,0,.317.039.336.226.022.209-.154.253-.3.234-.553-.072-.567.263-.55.666.019.454,0,.909,0,1.363,0,.187-.017.374-.274.37s-.288-.172-.289-.37c0-.424,0-.848,0-1.272-.006-.371.126-.845-.539-.76a.191.191,0,0,1-.233-.2c.007-.188.14-.251.3-.253.273,0,.545,0,.818,0" transform="translate(-301.935 -89.325)" fill="#fff"/>
    <path id="Caminho_23" data-name="Caminho 23" d="M566.183,109.376c.212,0,.425-.007.637,0s.477-.04.477.266c0,.261-.254.21-.417.2-.371-.015-.36.227-.36.479,0,.516,0,1.032,0,1.547,0,.2-.038.366-.286.371s-.274-.181-.275-.368c0-.394-.005-.789,0-1.183,0-.446.124-.967-.632-.86a.174.174,0,0,1-.2-.22.362.362,0,0,1,.247-.209,8.034,8.034,0,0,1,.818-.01v-.016" transform="translate(-461.39 -89.299)" fill="#fff"/>
    <path id="Caminho_24" data-name="Caminho 24" d="M245.422,111.31c.2-.469-.3-1.344.343-1.361.543-.015.245.87.232,1.328s.374,1.335-.293,1.351c-.541.013-.083-.868-.281-1.318" transform="translate(-200.378 -89.769)" fill="#fff"/>
    <path id="Caminho_25" data-name="Caminho 25" d="M287.513,105.922c.049.037.2.095.206.167.026.254-.21.217-.362.269-.12.041-.24.059-.243-.115,0-.218.139-.3.4-.32" transform="translate(-234.417 -86.481)" fill="#fff"/>
    <path id="Caminho_26" data-name="Caminho 26" d="M273.76,126.928l.321-.023c.058.225.193.483-.18.559-.11.022-.3.023-.34-.04-.146-.226.3-.254.2-.5" transform="translate(-223.328 -103.613)" fill="#fff"/>
    <path id="Caminho_27" data-name="Caminho 27" d="M21.532,10.866A10.574,10.574,0,1,1,10.9,21.42,10.56,10.56,0,0,1,21.532,10.866" transform="translate(-8.897 -8.872)" fill="#fff"/>
    <path id="Caminho_28" data-name="Caminho 28" d="M178.422,17.854h-.008c0-1.13.029-2.261-.005-3.39a6.653,6.653,0,0,0-13.222-.675,63.885,63.885,0,0,0-.1,7.6,1.4,1.4,0,0,0,1.429,1.481,1.426,1.426,0,0,0,1.522-1.48,18.211,18.211,0,0,0,.007-2.2c-.032-.564.157-.746.725-.731,1.373.036,2.748,0,4.123.017.819.012,1.87-.34,2.395.14s.113,1.553.175,2.363c.007.091,0,.183,0,.275a1.483,1.483,0,1,0,2.954-.008c.017-1.13,0-2.26,0-3.39m-3.605-2.336c-1-.039-2.009-.011-3.014-.011-1.035,0-2.071-.016-3.105.007-.443.01-.647-.081-.652-.594a3.715,3.715,0,1,1,7.429-.075c0,.511-.128.694-.657.673" transform="translate(-134.733 -6.645)" fill="#fff"/>
    <path id="Caminho_29" data-name="Caminho 29" d="M413.465,8.167a7.373,7.373,0,1,0,7.407,7.384,7.444,7.444,0,0,0-7.407-7.384m4.447,7.506a4.454,4.454,0,0,1-8.9-.257,4.454,4.454,0,0,1,8.9.257" transform="translate(-331.503 -6.668)" fill="#fff"/>
    <path id="Caminho_30" data-name="Caminho 30" d="M485.689,109.276c-1.288-.067-.7.89-.871,1.478.275.469-.543,1.507.814,1.443,1.146-.054,1.773-.568,1.754-1.537-.017-.886-.608-1.327-1.7-1.384m.076,2.485c-.744-.048-.164-.692-.432-1,.275-.315-.355-1.02.523-1.02a.866.866,0,0,1,.945.99.934.934,0,0,1-1.035,1.029" transform="translate(-395.835 -89.217)" fill="#fff"/>
    <path id="Caminho_31" data-name="Caminho 31" d="M339.012,109.184a1.4,1.4,0,0,0-1.353,1.534A1.272,1.272,0,0,0,339,112.126a1.366,1.366,0,0,0,1.422-1.456,1.4,1.4,0,0,0-1.406-1.487m.051,2.509c-.624.027-.811-.433-.819-.974-.007-.522.1-1.007.739-1.051.664-.046.747.482.852.95-.071.512-.14,1.047-.773,1.075" transform="translate(-275.686 -89.144)" fill="#fff"/>
    <path id="Caminho_32" data-name="Caminho 32" d="M213.219,109.177a1.378,1.378,0,0,0-1.4,1.462,1.286,1.286,0,0,0,1.331,1.481,1.362,1.362,0,0,0,1.426-1.429,1.4,1.4,0,0,0-1.356-1.515m-.05,2.511c-.624-.016-.78-.5-.777-1.029s.17-1,.8-1c.654,0,.72.536.813,1.02-.1.5-.2,1.027-.84,1.011" transform="translate(-172.941 -89.139)" fill="#fff"/>
    <path id="Caminho_33" data-name="Caminho 33" d="M300.469,109.188a1.437,1.437,0,0,0-1.428,1.483,1.346,1.346,0,0,0,1.4,1.46,1.31,1.31,0,0,0,1.352-1.5,1.344,1.344,0,0,0-1.328-1.447m-.046,2.51c-.625-.01-.8-.523-.791-1.03s.154-1.015.81-1,.745.512.795.97c-.043.58-.183,1.071-.814,1.061" transform="translate(-244.155 -89.148)" fill="#fff"/>
    <path id="Caminho_34" data-name="Caminho 34" d="M536.155,109.179a1.376,1.376,0,0,0-1.4,1.459,1.287,1.287,0,0,0,1.328,1.484,1.366,1.366,0,0,0,1.429-1.427,1.4,1.4,0,0,0-1.354-1.517m-.033,2.511c-.625,0-.8-.473-.8-1.009s.148-1,.783-1.021c.657-.017.736.513.834,1-.088.5-.184,1.03-.82,1.031" transform="translate(-436.604 -89.14)" fill="#fff"/>
    <path id="Caminho_35" data-name="Caminho 35" d="M358.062,111.685c.062-.386-.529-.655-.217-1.064.28-.368.363-.734.022-1.06a1.507,1.507,0,0,0-1.471-.244c-.538.128-.227.607-.3.926a2.153,2.153,0,0,0-.005.457,4.2,4.2,0,0,0,.006.64c.042.27-.188.728.244.761.506.039.228-.444.288-.7.042-.177.01-.38.268-.392a.394.394,0,0,1,.442.246c.072.2.131.4.192.608a.324.324,0,0,0,.417.25c.31-.066.089-.284.113-.433m-1.046-1.089c-.345.032-.39-.186-.4-.456s.065-.481.4-.454c.251.02.486.069.509.391.026.366-.238.444-.507.519" transform="translate(-290.719 -89.187)" fill="#fff"/>
    <path id="Caminho_36" data-name="Caminho 36" d="M619.748,111.847c-.146-.57-.519-1.128-.02-1.723.056-.067-.065-.364-.179-.479a1.542,1.542,0,0,0-1.457-.292c-.58.1-.261.577-.328.888a2.636,2.636,0,0,0-.007.547,3.418,3.418,0,0,0,.008.638c.05.258-.221.711.251.734.512.025.219-.449.288-.7.045-.161-.043-.39.233-.4a.419.419,0,0,1,.453.237c.091.225.159.459.231.691.059.188.208.2.362.188.224-.019.2-.179.165-.33m-1.151-1.206c-.408.022-.263-.307-.29-.513-.041-.321.123-.425.427-.38.268.039.445.158.463.445a.576.576,0,0,1-.6.448" transform="translate(-504.355 -89.239)" fill="#fff"/>
    <path id="Caminho_37" data-name="Caminho 37" d="M285.562,111.722q-.308-1-.643-1.983c-.077-.225-.16-.456-.488-.444-.306.011-.42.2-.5.44-.217.66-.436,1.319-.634,1.985-.04.136-.262.333.026.441a.334.334,0,0,0,.478-.273c.073-.351.242-.543.623-.467.4-.083.533.154.616.483a.347.347,0,0,0,.492.26c.285-.1.073-.3.029-.442m-.959-.794a.343.343,0,0,1-.334.026c-.328-.306.079-.559.116-.844.171.275.427.516.218.818" transform="translate(-231.204 -89.235)" fill="#fff"/>
    <path id="Caminho_38" data-name="Caminho 38" d="M170.051,109.864c-.078-.233-.161-.446-.482-.462-.375-.018-.456.242-.543.5-.214.633-.426,1.268-.613,1.909-.038.129-.261.336.042.438.194.065.326-.026.449-.2.531-.759.762-.766,1.259-.026.118.175.222.269.429.245.148-.017.208-.092.2-.149-.264-.808-.5-1.531-.738-2.252M169.746,111a.419.419,0,0,1-.395.029c-.259-.281.035-.524.137-1.022.208.467.412.7.258.993" transform="translate(-137.41 -89.322)" fill="#fff"/>
    <path id="Caminho_39" data-name="Caminho 39" d="M603.224,111.814a17.468,17.468,0,0,0-.808-2.317c-.219-.436-.671-.375-.863.148-.24.655-.447,1.323-.662,1.987-.052.159-.192.364.059.457.172.064.307-.018.432-.21.5-.769.744-.767,1.265,0a.4.4,0,0,0,.443.213c.152-.025.164-.147.134-.28m-1.026-.943a.262.262,0,0,1-.4-.018c-.207-.342.077-.613.248-1.118.073.535.424.8.154,1.136" transform="translate(-490.534 -89.164)" fill="#fff"/>
    <path id="Caminho_40" data-name="Caminho 40" d="M464.281,111.827a22.656,22.656,0,0,0-.8-2.322c-.189-.411-.649-.379-.833.058-.294.7-.5,1.433-.732,2.155-.044.136-.119.319.086.378.177.051.309-.01.437-.2.507-.775.755-.775,1.265-.011a.4.4,0,0,0,.439.221c.154-.023.174-.138.143-.275m-1.014-.96a.261.261,0,0,1-.4.007c-.25-.337.078-.6.18-1.09.148.476.447.742.221,1.083" transform="translate(-377.092 -89.171)" fill="#fff"/>
    <path id="Caminho_41" data-name="Caminho 41" d="M254.576,111.868a16.956,16.956,0,0,0-.868-2.39c-.238-.45-.681-.287-.853.208-.229.659-.435,1.327-.64,1.994-.043.14-.255.336.063.421.2.053.31-.048.429-.227.5-.752.74-.749,1.261,0a.419.419,0,0,0,.443.228c.143-.021.214-.086.166-.239m-1-.99a.439.439,0,0,1-.408.048c-.4-.338.121-.625.115-.945.247.286.432.565.293.9" transform="translate(-205.835 -89.169)" fill="#fff"/>
    <path id="Caminho_42" data-name="Caminho 42" d="M325.833,110.138c-.09-.773-.742-.763-1.334-.8-.818-.05-.626.533-.637.992,0,.153,0,.306,0,.458,0,.336-.006.672,0,1.008,0,.168-.048.383.224.41.327.032.327-.194.32-.416-.013-.349-.035-.658.483-.666.607-.01,1.014-.361.941-.986m-1.086.6c-.4.033-.339-.244-.339-.476s-.053-.51.339-.485c.309.02.518.139.559.472a.559.559,0,0,1-.559.49" transform="translate(-264.411 -89.268)" fill="#fff"/>
    <path id="Caminho_43" data-name="Caminho 43" d="M50.492,34.3c0,1.406.011,2.813,0,4.219-.011,1.011-.385,1.4-1.377,1.406q-2.431.022-4.862,0c-.868-.009-1.327-.444-1.319-1.178s.476-1.181,1.324-1.2c1.07-.023,2.141-.025,3.21,0,.477.012.648-.147.633-.629-.029-.978-.035-1.957,0-2.934.021-.561-.237-.655-.716-.648-1.5.021-3,.024-4.494,0-.506-.008-.726.139-.691.673a14.02,14.02,0,0,1,0,1.65A1.168,1.168,0,0,1,41,36.9a1.138,1.138,0,0,1-1.187-1.246c0-1.957-.064-3.917.037-5.869a5.335,5.335,0,0,1,10.611.11c.065,1.465.012,2.934.012,4.4h.021" transform="translate(-32.488 -20.467)" fill="#009ddd"/>
    <path id="Caminho_44" data-name="Caminho 44" d="M65.232,75.913c.488.047.819.329.8.805a.845.845,0,1,1-.8-.805" transform="translate(-52.533 -61.98)" fill="#17a1de"/>
    <path id="Caminho_45" data-name="Caminho 45" d="M55.81,41.59c-.762,0-1.524-.024-2.285.008-.5.021-.609-.2-.6-.652a2.951,2.951,0,0,1,5.9.026c0,.48-.158.643-.633.626-.791-.03-1.584-.008-2.376-.008" transform="translate(-43.207 -31.109)" fill="#fff"/>
  </g>
</svg>
